<svg xmlns="http://www.w3.org/2000/svg" width="16" height="16" viewBox="0 0 16 16" shape-rendering="crispEdges">
<!-- Empty Mug — Pixel Art -->
    <!-- Rim -->
    <rect x="3" y="4" width="8" height="1" fill="#181825"/>
    <!-- Walls + interior -->
    <rect x="2" y="5" width="1" height="1" fill="#181825"/>
    <rect x="3" y="5" width="7" height="1" fill="#585b70"/>
    <rect x="10" y="5" width="1" height="1" fill="#181825"/>
    <rect x="2" y="6" width="1" height="1" fill="#181825"/>
    <rect x="3" y="6" width="7" height="1" fill="#45475a"/>
    <rect x="10" y="6" width="1" height="1" fill="#181825"/>
    <rect x="11" y="6" width="1" height="1" fill="#181825"/>
    <rect x="2" y="7" width="1" height="1" fill="#181825"/>
    <rect x="3" y="7" width="7" height="1" fill="#45475a"/>
    <rect x="10" y="7" width="1" height="1" fill="#181825"/>
    <rect x="12" y="7" width="1" height="1" fill="#181825"/>
    <rect x="2" y="8" width="1" height="1" fill="#181825"/>
    <rect x="3" y="8" width="7" height="1" fill="#45475a"/>
    <rect x="10" y="8" width="1" height="1" fill="#181825"/>
    <rect x="12" y="8" width="1" height="1" fill="#181825"/>
    <rect x="2" y="9" width="1" height="1" fill="#181825"/>
    <rect x="3" y="9" width="7" height="1" fill="#45475a"/>
    <rect x="10" y="9" width="1" height="1" fill="#181825"/>
    <rect x="12" y="9" width="1" height="1" fill="#181825"/>
    <rect x="2" y="10" width="1" height="1" fill="#181825"/>
    <rect x="3" y="10" width="7" height="1" fill="#313244"/>
    <rect x="10" y="10" width="1" height="1" fill="#181825"/>
    <rect x="11" y="10" width="1" height="1" fill="#181825"/>
    <!-- Bottom -->
    <rect x="3" y="11" width="8" height="1" fill="#181825"/>
</svg>
