<svg xmlns="http://www.w3.org/2000/svg" width="16" height="16" viewBox="0 0 16 16" shape-rendering="crispEdges">
<!-- Full Mug with Steam — Pixel Art -->
    <!-- Steam -->
    <rect x="4" y="0" width="1" height="1" fill="#181825"/>
    <rect x="7" y="0" width="1" height="1" fill="#181825"/>
    <rect x="5" y="1" width="1" height="1" fill="#181825"/>
    <rect x="4" y="2" width="1" height="1" fill="#181825"/>
    <rect x="7" y="2" width="1" height="1" fill="#181825"/>
    <rect x="5" y="3" width="1" height="1" fill="#181825"/>
    <!-- Rim -->
    <rect x="3" y="4" width="8" height="1" fill="#181825"/>
    <!-- Walls + coffee -->
    <rect x="2" y="5" width="1" height="1" fill="#181825"/>
    <rect x="3" y="5" width="7" height="1" fill="#7c4a1e"/>
    <rect x="10" y="5" width="1" height="1" fill="#181825"/>
    <rect x="2" y="6" width="1" height="1" fill="#181825"/>
    <rect x="3" y="6" width="7" height="1" fill="#6c3b13"/>
    <rect x="10" y="6" width="1" height="1" fill="#181825"/>
    <rect x="11" y="6" width="1" height="1" fill="#181825"/>
    <rect x="2" y="7" width="1" height="1" fill="#181825"/>
    <rect x="3" y="7" width="7" height="1" fill="#6c3b13"/>
    <rect x="10" y="7" width="1" height="1" fill="#181825"/>
    <rect x="12" y="7" width="1" height="1" fill="#181825"/>
    <rect x="2" y="8" width="1" height="1" fill="#181825"/>
    <rect x="3" y="8" width="7" height="1" fill="#6c3b13"/>
    <rect x="10" y="8" width="1" height="1" fill="#181825"/>
    <rect x="12" y="8" width="1" height="1" fill="#181825"/>
    <rect x="2" y="9" width="1" height="1" fill="#181825"/>
    <rect x="3" y="9" width="7" height="1" fill="#6c3b13"/>
    <rect x="10" y="9" width="1" height="1" fill="#181825"/>
    <rect x="12" y="9" width="1" height="1" fill="#181825"/>
    <rect x="2" y="10" width="1" height="1" fill="#181825"/>
    <rect x="3" y="10" width="7" height="1" fill="#6c3b13"/>
    <rect x="10" y="10" width="1" height="1" fill="#181825"/>
    <rect x="11" y="10" width="1" height="1" fill="#181825"/>
    <!-- Bottom -->
    <rect x="3" y="11" width="8" height="1" fill="#181825"/>
</svg>
